:version 1.10
:name ASF
:units
  mass 1
  length 1
  angle deg
:documentation
  ASF file generated by Kaydara
:root
  axis xyz
  order  tx ty tz rx ry rz
  position 0 0 0
  orientation 0 0 0
:bonedata
  begin
    id 1
    name SpineDummy
    direction 0.999998 -0.00179978 1.38929e-006
    length 3.60008
    axis 0 0 0 xyz
  end
  begin
    id 2
    name Spine
    direction 0.964365 0.262802 0.0305839
    length 8.13928
    axis 1.33928 -1.75354 15.2838 xyz
    dof rx ry rz
  end
  begin
    id 3
    name Spine1
    direction 0.811168 0.572065 0.12144
    length 7.14954
    axis 2.2224 -6.9761 35.2157 xyz
    dof rx ry rz
  end
  begin
    id 4
    name Neck
    direction 0 0 0
    length 0
    axis 2.2224 -6.9761 35.2157 xyz
    dof rx ry rz
  end
  begin
    id 5
    name HeadDummy
    direction 0.810939 0.572387 0.121455
    length 3.55534
    axis 2.2224 -6.9761 35.2157 xyz
  end
  begin
    id 6
    name Head
    direction 0.998226 -0.000232542 0.0595419
    length 7.35666
    axis -3.03688 -3.41352 -0.0133467 xyz
    dof rx ry rz
  end
  begin
    id 7
    name R_ClavicleDummy
    direction 0.531669 -0.194489 -0.824319
    length 2.49392
    axis 2.2224 -6.9761 35.2157 xyz
  end
  begin
    id 8
    name R_Clavicle
    direction -0.155119 0.0480802 -0.986725
    length 4.485
    axis -54.2764 80.6538 162.779 xyz
    dof rx ry rz
  end
  begin
    id 9
    name R_UpperArm
    direction -0.955567 0.200068 -0.216484
    length 10.1122
    axis -72.9943 12.5026 168.175 xyz
    dof rx ry rz
  end
  begin
    id 10
    name R_Forearm
    direction -0.61433 0.385743 0.688332
    length 9.39148
    axis -117.015 -43.4982 147.875 xyz
    dof rx ry rz
  end
  begin
    id 11
    name R_Hand
    direction -0.699429 0.0170333 0.714499
    length 3.66324
    axis -45.0303 -36.7097 175.478 xyz
    dof rx ry rz
  end
  begin
    id 12
    name L_ClavicleDummy
    direction 0.40287 -0.36502 0.839319
    length 2.49392
    axis 2.2224 -6.9761 35.2157 xyz
  end
  begin
    id 13
    name L_Clavicle
    direction -0.231271 -0.0726419 0.970174
    length 4.485
    axis 18.4357 -75.9711 -162.563 xyz
    dof rx ry rz
  end
  begin
    id 14
    name L_UpperArm
    direction -0.917494 0.144359 0.370629
    length 10.1122
    axis 56.0417 -21.7544 171.058 xyz
    dof rx ry rz
  end
  begin
    id 15
    name L_Forearm
    direction -0.496786 0.615074 -0.612281
    length 9.39148
    axis 89.8094 37.7546 128.927 xyz
    dof rx ry rz
  end
  begin
    id 16
    name L_Hand
    direction -0.409932 0.64962 -0.640274
    length 3.66324
    axis -0.424369 32.133 128.52 xyz
    dof rx ry rz
  end
  begin
    id 17
    name L_ThighDummy
    direction -1.84081e-006 1.87549e-006 1
    length 3.13049
    axis 0 0 0 xyz
  end
  begin
    id 18
    name L_Thigh
    direction -0.947739 0.307978 0.083308
    length 17.9961
    axis 173.219 -4.77873 161.998 xyz
    dof rx ry rz
  end
  begin
    id 19
    name L_Calf
    direction -0.728814 -0.684427 0.0197583
    length 13.3367
    axis 167.331 -1.13214 -136.799 xyz
    dof rx ry rz
  end
  begin
    id 20
    name L_Foot
    direction -0.9028 0.418719 0.0981191
    length 5.8674
    axis 163.436 11.5135 -155.37 xyz
    dof rx ry rz
  end
  begin
    id 21
    name L_Toe0
    direction -0.35341 0.886259 0.299411
    length 4.75286
    axis 169.316 -17.4222 111.74 xyz
    dof rx ry rz
  end
  begin
    id 22
    name R_ThighDummy
    direction 9.32778e-007 -8.82053e-007 -1
    length 3.13049
    axis 0 0 0 xyz
  end
  begin
    id 23
    name R_Thigh
    direction -0.925064 0.37528 -0.0585023
    length 17.9961
    axis -178.698 3.35385 157.919 xyz
    dof rx ry rz
  end
  begin
    id 24
    name R_Calf
    direction -0.68969 -0.718776 -0.0876886
    length 13.3367
    axis -160.504 5.03065 -133.817 xyz
    dof rx ry rz
  end
  begin
    id 25
    name R_Foot
    direction -0.857405 0.418858 -0.299022
    length 5.8674
    axis -161.328 4.38911 -154.413 xyz
    dof rx ry rz
  end
  begin
    id 26
    name R_Toe0
    direction -0.100745 0.952789 -0.286433
    length 4.75286
    axis 171.683 16.6445 96.0359 xyz
    dof rx ry rz
  end
:hierarchy
  begin
    root SpineDummy L_ThighDummy R_ThighDummy
    SpineDummy Spine
    Spine Spine1
    Spine1 Neck
    Neck HeadDummy R_ClavicleDummy L_ClavicleDummy
    HeadDummy Head
    R_ClavicleDummy R_Clavicle
    R_Clavicle R_UpperArm
    R_UpperArm R_Forearm
    R_Forearm R_Hand
    L_ClavicleDummy L_Clavicle
    L_Clavicle L_UpperArm
    L_UpperArm L_Forearm
    L_Forearm L_Hand
    L_ThighDummy L_Thigh
    L_Thigh L_Calf
    L_Calf L_Foot
    L_Foot L_Toe0
    R_ThighDummy R_Thigh
    R_Thigh R_Calf
    R_Calf R_Foot
    R_Foot R_Toe0
  end

:SAMPLES-PER-SECOND 30
:FULLY-SPECIFIED
:DEGREES
321
root  1.89548 19.12 7.56959 62.0841 -27.4665 152.935
Spine  -18.6732 -14.8057 10.5359
Spine1  -13.5171 3.31719 -4.19689
Neck  3.97569e-016 0 -2.38542e-015
Head  46.881 2.71569 17.3015
R_Clavicle  3.59944 19.1823 11.1247
R_UpperArm  43.6992 0.861585 -20.9777
R_Forearm  -5.55581 -0.369905 -3.14341
R_Hand  -16.7934 42.1929 -55.7315
L_Clavicle  0.878362 4.90635 -10.2702
L_UpperArm  -30.4642 -24.1925 3.51526
L_Forearm  -14.3074 7.81094 0.290494
L_Hand  1.81495 -33.2366 -7.61054
L_Thigh  -6.58531 16.2303 -17.664
L_Calf  -16.555 2.78223 -21.1564
L_Foot  6.35678 9.67809 13.4831
L_Toe0  0.505156 0.0347166 -6.13609
R_Thigh  20.2553 14.9548 36.3707
R_Calf  14.199 0.797313 2.39059
R_Foot  -23.3702 -33.421 30.0086
R_Toe0  -11.4557 5.26536 6.08288
322
root  0.802412 19.5575 7.17365 74.1404 -28.6971 154.881
Spine  -20.8386 -14.4811 15.288
Spine1  -15.7499 6.76094 -5.33314
Neck  3.97569e-016 0 -2.38542e-015
Head  42.5016 1.46554 18.7048
R_Clavicle  2.85122 16.4899 9.44521
R_UpperArm  47.8812 -0.768013 -12.7947
R_Forearm  -1.23801 1.79851 -3.45631
R_Hand  -18.028 43.0632 -57.701
L_Clavicle  1.09509 2.87868 -10.1021
L_UpperArm  -18.5926 -32.9866 -16.9659
L_Forearm  -8.49215 25.3554 16.8308
L_Hand  -0.464864 -17.2003 7.40423
L_Thigh  5.75357 19.4472 -9.9326
L_Calf  -13.4283 1.17239 -8.93548
L_Foot  6.46812 12.7627 10.4295
L_Toe0  0.505156 0.0348864 -6.13609
R_Thigh  9.91806 11.4028 35.9031
R_Calf  22.8954 2.81809 8.65238
R_Foot  -20.3128 -35.4069 21.6884
R_Toe0  -11.2008 4.09462 3.21741
323
root  -0.269893 19.8861 6.95888 90.2001 -28.9009 158.453
Spine  -23.8724 -13.0182 23.1773
Spine1  -19.5512 12.0287 -9.03653
Neck  3.97569e-016 0 -2.38542e-015
Head  39.8789 -2.39008 18.5791
R_Clavicle  2.4372 13.9761 8.625
R_UpperArm  52.5686 -2.79711 -2.50866
R_Forearm  5.83788 3.39778 -3.54568
R_Hand  -20.8826 44.2139 -62.6523
L_Clavicle  1.17288 0.708075 -8.82178
L_UpperArm  6.55713 -33.215 -45.0391
L_Forearm  -0.155151 39.0425 41.6277
L_Hand  0.553031 6.57259 5.61115
L_Thigh  8.84076 19.5302 0.914742
L_Calf  -3.37202 -0.190528 1.16215
L_Foot  5.50765 10.5197 9.76225
L_Toe0  0.505156 0.0350839 -6.13609
R_Thigh  0.516068 1.18137 35.3321
R_Calf  23.9127 1.76074 5.26857
R_Foot  -13.2445 -30.9481 10.483
R_Toe0  -16.9425 3.60769 -4.68866
324
root  -1.13762 20.2677 6.82211 103.14 -28.8094 160.972
Spine  -22.3419 -8.58353 28.02
Spine1  -20.3801 12.6171 -12.1476
Neck  3.97569e-016 0 -2.38542e-015
Head  35.5239 -7.57201 20.1381
R_Clavicle  1.95663 10.4386 7.82508
R_UpperArm  56.1932 -6.41746 13.9771
R_Forearm  15.866 5.42633 -5.22658
R_Hand  -26.8238 43.9452 -74.3774
L_Clavicle  0.854845 0.510757 -6.36002
L_UpperArm  23.2175 -25.5893 -48.2904
L_Forearm  -16.3016 18.9472 24.5702
L_Hand  0.884628 7.85332 7.7111
L_Thigh  0.458468 17.3063 8.22551
L_Calf  0.622832 -0.928064 6.57285
L_Foot  4.6622 9.1317 8.47204
L_Toe0  0.505156 0.0353019 -6.13609
R_Thigh  -4.10645 -9.0045 35.3439
R_Calf  20.5186 -1.75609 -5.55492
R_Foot  -6.8805 -20.1969 3.83191
R_Toe0  -14.3572 2.64552 -5.87061
325
root  -1.79285 20.328 6.89584 113.29 -28.7315 160.97
Spine  -17.5331 -5.22013 28.5487
Spine1  -17.2199 12.8388 -12.2889
Neck  3.97569e-016 0 -2.38542e-015
Head  29.9276 -14.712 23.8001
R_Clavicle  0.952201 3.94877 4.30737
R_UpperArm  58.3898 -10.7593 35.7715
R_Forearm  24.9137 9.31278 -8.93165
R_Hand  -33.3166 44.6239 -85.0564
L_Clavicle  0.451754 3.54487 -5.09318
L_UpperArm  17.3695 -16.2862 -47.7242
L_Forearm  -12.1144 5.51249 6.38901
L_Hand  1.06527 9.11451 8.50858
L_Thigh  -8.21039 14.8899 12.5955
L_Calf  -3.66502 -1.02339 7.32626
L_Foot  5.08394 12.4387 6.51823
L_Toe0  0.505156 0.0355328 -6.13609
R_Thigh  -9.92986 -13.8461 33.9067
R_Calf  21.5374 -6.10759 -19.4219
R_Foot  -4.85538 -13.1322 4.58505
R_Toe0  -12.9656 2.00854 -7.28406
326
root  -2.24803 19.9596 7.14521 124.895 -28.7572 157.065
Spine  -12.8024 -1.98525 26.3041
Spine1  -13.8084 16.0253 -9.87568
Neck  3.97569e-016 0 -2.38542e-015
Head  27.0355 -22.731 26.6527
R_Clavicle  0.447226 -0.143453 2.26005
R_UpperArm  61.0333 -13.849 55.087
R_Forearm  34.4655 14.3695 -13.4992
R_Hand  -41.5741 55.8378 -85.8185
L_Clavicle  -0.0332365 8.77502 -3.18198
L_UpperArm  16.9381 -8.6852 -42.6841
L_Forearm  -13.3868 -6.31058 -7.34969
L_Hand  1.11261 9.04872 8.91475
L_Thigh  -7.03828 11.7218 18.2337
L_Calf  -6.99532 -0.659384 4.75701
L_Foot  5.217 14.3924 5.17223
L_Toe0  0.505156 0.0357692 -6.13609
R_Thigh  -15.1267 -14.3575 29.7299
R_Calf  25.2036 -10.5904 -35.4365
R_Foot  -4.2184 -9.23402 7.69935
R_Toe0  -10.6098 1.32033 -8.82427
327
root  -2.756 19.4663 7.5689 138.651 -27.6239 150.948
Spine  -9.0372 2.47408 22.0292
Spine1  -11.3306 18.9945 -3.74341
Neck  3.97569e-016 0 -2.38542e-015
Head  25.8431 -27.3727 27.1356
R_Clavicle  0.241258 -4.63855 0.980833
R_UpperArm  63.0422 -8.27668 67.7369
R_Forearm  37.1717 9.61372 -10.8246
R_Hand  -12.7703 78.6978 -35.5503
L_Clavicle  -0.180636 10.7043 -2.47113
L_UpperArm  13.3369 -4.62685 -33.911
L_Forearm  -12.9077 -14.2187 -17.0263
L_Hand  0.797449 8.2148 6.86016
L_Thigh  0.469308 6.79097 23.6541
L_Calf  -5.97831 -0.287251 2.03444
L_Foot  4.63158 13.133 4.47946
L_Toe0  0.505156 0.0360039 -6.13608
R_Thigh  -17.4357 -13.8576 21.8931
R_Calf  27.998 -14.1507 -51.3415
R_Foot  -3.07857 -4.28923 11.5237
R_Toe0  -2.46433 0.0744985 -11.3749
328
root  -3.46272 18.901 8.17628 151.243 -25.8718 146.314
Spine  -7.21328 5.15036 18.7817
Spine1  -9.74406 21.1324 2.71906
Neck  3.97569e-016 0 -2.38542e-015
Head  25.6435 -28.4463 27.1448
R_Clavicle  0.270621 -8.47905 0.930249
R_UpperArm  60.9296 2.02945 67.4658
R_Forearm  20.7835 -9.78417 3.65612
R_Hand  25.5044 55.3674 24.8103
L_Clavicle  -0.199944 11.0986 -2.51864
L_UpperArm  5.69615 -3.42022 -21.4009
L_Forearm  -10.8204 -18.4741 -22.7044
L_Hand  0.293798 6.34862 3.04039
L_Thigh  3.1159 1.89453 26.1026
L_Calf  -4.23526 -0.268706 1.82775
L_Foot  4.401 13.3156 3.62494
L_Toe0  0.505156 0.0362292 -6.13608
R_Thigh  -17.9159 -14.7925 11.6342
R_Calf  33.6247 -16.2611 -64.5582
R_Foot  -3.42413 -3.24495 16.276
R_Toe0  5.93174 -0.78436 -13.3987
329
root  -4.33102 18.065 8.80461 160.281 -25.1643 142.42
Spine  -6.48137 4.82838 17.6141
Spine1  -8.55249 21.1591 6.12991
Neck  3.97569e-016 0 -2.38542e-015
Head  26.718 -28.3282 27.9828
R_Clavicle  0.320263 -10.243 1.21347
R_UpperArm  57.8173 6.69996 60.5886
R_Forearm  9.01317 -24.3513 16.186
R_Hand  13.1224 38.204 14.6231
L_Clavicle  -0.284061 12.7956 -2.65681
L_UpperArm  -5.69103 -2.66284 -6.91911
L_Forearm  -11.8814 -18.1092 -22.1986
L_Hand  0.0312892 3.83719 0.485439
L_Thigh  -3.99169 -0.0679371 27.4177
L_Calf  -5.37693 -0.527945 3.70428
L_Foot  4.53001 15.9233 1.93691
L_Toe0  0.505156 0.0364379 -6.13608
R_Thigh  -17.5768 -17.5647 3.87403
R_Calf  42.6723 -17.0987 -72.2468
R_Foot  -3.91855 -4.11016 16.2588
R_Toe0  11.1469 -2.00373 -9.12071
